<mxfile host="Electron" agent="Mozilla/5.0 (Macintosh; Intel Mac OS X 10_15_7) AppleWebKit/537.36 (KHTML, like Gecko) draw.io/28.0.6 Chrome/138.0.7204.100 Electron/37.2.3 Safari/537.36" version="28.0.6">
  <diagram name="Page-1" id="7bjrZrW5TOF2zFG61s8D">
    <mxGraphModel dx="2305" dy="1045" grid="1" gridSize="10" guides="1" tooltips="1" connect="1" arrows="1" fold="1" page="1" pageScale="1" pageWidth="850" pageHeight="1100" math="0" shadow="0">
      <root>
        <mxCell id="0" />
        <mxCell id="1" parent="0" />
        <mxCell id="kji1EXSY_DbW-UMr9K9y-116" value="" style="ellipse;whiteSpace=wrap;html=1;hachureGap=4;fontFamily=Times New Roman;fontSize=26;sketch=1;curveFitting=1;jiggle=2;" vertex="1" parent="1">
          <mxGeometry x="260" y="450" width="800" height="290" as="geometry" />
        </mxCell>
        <mxCell id="kji1EXSY_DbW-UMr9K9y-71" value="" style="edgeStyle=orthogonalEdgeStyle;rounded=0;hachureGap=4;orthogonalLoop=1;jettySize=auto;html=1;fontFamily=Times New Roman;fontSize=26;sketch=1;curveFitting=1;jiggle=2;" edge="1" parent="1" source="kji1EXSY_DbW-UMr9K9y-38" target="kji1EXSY_DbW-UMr9K9y-64">
          <mxGeometry relative="1" as="geometry" />
        </mxCell>
        <mxCell id="kji1EXSY_DbW-UMr9K9y-38" value="" style="shape=table;startSize=0;container=1;collapsible=0;childLayout=tableLayout;fontSize=26;hachureGap=4;fontFamily=Times New Roman;columnLines=1;rowLines=1;absoluteArcSize=0;sketch=1;curveFitting=1;jiggle=2;" vertex="1" parent="1">
          <mxGeometry x="90" y="240" width="170" height="183" as="geometry" />
        </mxCell>
        <mxCell id="kji1EXSY_DbW-UMr9K9y-39" value="" style="shape=tableRow;horizontal=0;startSize=0;swimlaneHead=0;swimlaneBody=0;strokeColor=inherit;top=0;left=0;bottom=0;right=0;collapsible=0;dropTarget=0;fillColor=none;points=[[0,0.5],[1,0.5]];portConstraint=eastwest;fontSize=26;hachureGap=4;fontFamily=Times New Roman;sketch=1;curveFitting=1;jiggle=2;" vertex="1" parent="kji1EXSY_DbW-UMr9K9y-38">
          <mxGeometry width="170" height="61" as="geometry" />
        </mxCell>
        <mxCell id="kji1EXSY_DbW-UMr9K9y-40" value="Block0: A" style="shape=partialRectangle;html=1;whiteSpace=wrap;connectable=0;strokeColor=inherit;overflow=hidden;fillColor=none;top=0;left=0;bottom=0;right=0;pointerEvents=1;fontSize=26;hachureGap=4;fontFamily=Times New Roman;sketch=1;curveFitting=1;jiggle=2;" vertex="1" parent="kji1EXSY_DbW-UMr9K9y-39">
          <mxGeometry width="170" height="61" as="geometry">
            <mxRectangle width="170" height="61" as="alternateBounds" />
          </mxGeometry>
        </mxCell>
        <mxCell id="kji1EXSY_DbW-UMr9K9y-43" value="" style="shape=tableRow;horizontal=0;startSize=0;swimlaneHead=0;swimlaneBody=0;strokeColor=inherit;top=0;left=0;bottom=0;right=0;collapsible=0;dropTarget=0;fillColor=none;points=[[0,0.5],[1,0.5]];portConstraint=eastwest;fontSize=26;hachureGap=4;fontFamily=Times New Roman;sketch=1;curveFitting=1;jiggle=2;" vertex="1" parent="kji1EXSY_DbW-UMr9K9y-38">
          <mxGeometry y="61" width="170" height="61" as="geometry" />
        </mxCell>
        <mxCell id="kji1EXSY_DbW-UMr9K9y-44" value="Block1: B" style="shape=partialRectangle;html=1;whiteSpace=wrap;connectable=0;strokeColor=inherit;overflow=hidden;fillColor=none;top=0;left=0;bottom=0;right=0;pointerEvents=1;fontSize=26;hachureGap=4;fontFamily=Times New Roman;sketch=1;curveFitting=1;jiggle=2;" vertex="1" parent="kji1EXSY_DbW-UMr9K9y-43">
          <mxGeometry width="170" height="61" as="geometry">
            <mxRectangle width="170" height="61" as="alternateBounds" />
          </mxGeometry>
        </mxCell>
        <mxCell id="kji1EXSY_DbW-UMr9K9y-47" value="" style="shape=tableRow;horizontal=0;startSize=0;swimlaneHead=0;swimlaneBody=0;strokeColor=inherit;top=0;left=0;bottom=0;right=0;collapsible=0;dropTarget=0;fillColor=none;points=[[0,0.5],[1,0.5]];portConstraint=eastwest;fontSize=26;hachureGap=4;fontFamily=Times New Roman;sketch=1;curveFitting=1;jiggle=2;" vertex="1" parent="kji1EXSY_DbW-UMr9K9y-38">
          <mxGeometry y="122" width="170" height="61" as="geometry" />
        </mxCell>
        <mxCell id="kji1EXSY_DbW-UMr9K9y-48" value="Block2: C" style="shape=partialRectangle;html=1;whiteSpace=wrap;connectable=0;strokeColor=inherit;overflow=hidden;fillColor=none;top=0;left=0;bottom=0;right=0;pointerEvents=1;fontSize=26;hachureGap=4;fontFamily=Times New Roman;sketch=1;curveFitting=1;jiggle=2;" vertex="1" parent="kji1EXSY_DbW-UMr9K9y-47">
          <mxGeometry width="170" height="61" as="geometry">
            <mxRectangle width="170" height="61" as="alternateBounds" />
          </mxGeometry>
        </mxCell>
        <mxCell id="kji1EXSY_DbW-UMr9K9y-60" value="" style="html=1;shadow=0;dashed=0;align=center;verticalAlign=middle;shape=mxgraph.arrows2.jumpInArrow;dy=15;dx=38;arrowHead=44;hachureGap=4;fontFamily=Times New Roman;fontSize=26;fillColor=#fa6800;fontColor=#000000;strokeColor=#C73500;sketch=1;curveFitting=1;jiggle=2;" vertex="1" parent="1">
          <mxGeometry y="320" width="90" height="190" as="geometry" />
        </mxCell>
        <mxCell id="kji1EXSY_DbW-UMr9K9y-61" value="Snapshot1" style="text;html=1;align=center;verticalAlign=middle;resizable=0;points=[];autosize=1;fontFamily=Times New Roman;fontSize=26;fillColor=#f8cecc;strokeColor=#b85450;sketch=1;curveFitting=1;jiggle=2;" vertex="1" parent="1">
          <mxGeometry x="-65" y="505" width="130" height="40" as="geometry" />
        </mxCell>
        <mxCell id="kji1EXSY_DbW-UMr9K9y-83" value="" style="edgeStyle=orthogonalEdgeStyle;rounded=0;hachureGap=4;orthogonalLoop=1;jettySize=auto;html=1;fontFamily=Times New Roman;fontSize=26;sketch=1;curveFitting=1;jiggle=2;" edge="1" parent="1" source="kji1EXSY_DbW-UMr9K9y-64" target="kji1EXSY_DbW-UMr9K9y-76">
          <mxGeometry relative="1" as="geometry" />
        </mxCell>
        <mxCell id="kji1EXSY_DbW-UMr9K9y-64" value="" style="shape=table;startSize=0;container=1;collapsible=0;childLayout=tableLayout;fontSize=26;hachureGap=4;fontFamily=Times New Roman;columnLines=1;rowLines=1;absoluteArcSize=0;sketch=1;curveFitting=1;jiggle=2;" vertex="1" parent="1">
          <mxGeometry x="340" y="240" width="170" height="183" as="geometry" />
        </mxCell>
        <mxCell id="kji1EXSY_DbW-UMr9K9y-65" value="" style="shape=tableRow;horizontal=0;startSize=0;swimlaneHead=0;swimlaneBody=0;strokeColor=inherit;top=0;left=0;bottom=0;right=0;collapsible=0;dropTarget=0;fillColor=none;points=[[0,0.5],[1,0.5]];portConstraint=eastwest;fontSize=26;hachureGap=4;fontFamily=Times New Roman;sketch=1;curveFitting=1;jiggle=2;" vertex="1" parent="kji1EXSY_DbW-UMr9K9y-64">
          <mxGeometry width="170" height="61" as="geometry" />
        </mxCell>
        <mxCell id="kji1EXSY_DbW-UMr9K9y-66" value="Block0: A" style="shape=partialRectangle;html=1;whiteSpace=wrap;connectable=0;strokeColor=inherit;overflow=hidden;fillColor=none;top=0;left=0;bottom=0;right=0;pointerEvents=1;fontSize=26;hachureGap=4;fontFamily=Times New Roman;sketch=1;curveFitting=1;jiggle=2;" vertex="1" parent="kji1EXSY_DbW-UMr9K9y-65">
          <mxGeometry width="170" height="61" as="geometry">
            <mxRectangle width="170" height="61" as="alternateBounds" />
          </mxGeometry>
        </mxCell>
        <mxCell id="kji1EXSY_DbW-UMr9K9y-67" value="" style="shape=tableRow;horizontal=0;startSize=0;swimlaneHead=0;swimlaneBody=0;strokeColor=inherit;top=0;left=0;bottom=0;right=0;collapsible=0;dropTarget=0;fillColor=none;points=[[0,0.5],[1,0.5]];portConstraint=eastwest;fontSize=26;hachureGap=4;fontFamily=Times New Roman;sketch=1;curveFitting=1;jiggle=2;" vertex="1" parent="kji1EXSY_DbW-UMr9K9y-64">
          <mxGeometry y="61" width="170" height="61" as="geometry" />
        </mxCell>
        <mxCell id="kji1EXSY_DbW-UMr9K9y-68" value="Block1: D" style="shape=partialRectangle;html=1;whiteSpace=wrap;connectable=0;strokeColor=#006EAF;overflow=hidden;fillColor=#1ba1e2;top=0;left=0;bottom=0;right=0;pointerEvents=1;fontSize=26;hachureGap=4;fontFamily=Times New Roman;fontColor=#000000;sketch=1;curveFitting=1;jiggle=2;" vertex="1" parent="kji1EXSY_DbW-UMr9K9y-67">
          <mxGeometry width="170" height="61" as="geometry">
            <mxRectangle width="170" height="61" as="alternateBounds" />
          </mxGeometry>
        </mxCell>
        <mxCell id="kji1EXSY_DbW-UMr9K9y-69" value="" style="shape=tableRow;horizontal=0;startSize=0;swimlaneHead=0;swimlaneBody=0;strokeColor=inherit;top=0;left=0;bottom=0;right=0;collapsible=0;dropTarget=0;fillColor=none;points=[[0,0.5],[1,0.5]];portConstraint=eastwest;fontSize=26;hachureGap=4;fontFamily=Times New Roman;sketch=1;curveFitting=1;jiggle=2;" vertex="1" parent="kji1EXSY_DbW-UMr9K9y-64">
          <mxGeometry y="122" width="170" height="61" as="geometry" />
        </mxCell>
        <mxCell id="kji1EXSY_DbW-UMr9K9y-70" value="Block2: C" style="shape=partialRectangle;html=1;whiteSpace=wrap;connectable=0;strokeColor=inherit;overflow=hidden;fillColor=none;top=0;left=0;bottom=0;right=0;pointerEvents=1;fontSize=26;hachureGap=4;fontFamily=Times New Roman;sketch=1;curveFitting=1;jiggle=2;" vertex="1" parent="kji1EXSY_DbW-UMr9K9y-69">
          <mxGeometry width="170" height="61" as="geometry">
            <mxRectangle width="170" height="61" as="alternateBounds" />
          </mxGeometry>
        </mxCell>
        <mxCell id="kji1EXSY_DbW-UMr9K9y-101" value="" style="edgeStyle=orthogonalEdgeStyle;rounded=0;hachureGap=4;orthogonalLoop=1;jettySize=auto;html=1;fontFamily=Times New Roman;fontSize=26;sketch=1;curveFitting=1;jiggle=2;" edge="1" parent="1" source="kji1EXSY_DbW-UMr9K9y-72" target="kji1EXSY_DbW-UMr9K9y-100">
          <mxGeometry relative="1" as="geometry" />
        </mxCell>
        <mxCell id="kji1EXSY_DbW-UMr9K9y-72" value="BLock1: B" style="whiteSpace=wrap;html=1;hachureGap=4;fontFamily=Times New Roman;fontSize=26;fillColor=#f0a30a;strokeColor=#BD7000;fontColor=#000000;labelBackgroundColor=none;sketch=1;curveFitting=1;jiggle=2;" vertex="1" parent="1">
          <mxGeometry x="347.07" y="490" width="160" height="70" as="geometry" />
        </mxCell>
        <mxCell id="kji1EXSY_DbW-UMr9K9y-75" value="Snapshot2" style="text;html=1;align=center;verticalAlign=middle;resizable=0;points=[];autosize=1;strokeColor=#b85450;fillColor=#f8cecc;fontFamily=Times New Roman;fontSize=26;sketch=1;curveFitting=1;jiggle=2;" vertex="1" parent="1">
          <mxGeometry x="-65" y="585" width="130" height="40" as="geometry" />
        </mxCell>
        <mxCell id="kji1EXSY_DbW-UMr9K9y-96" value="" style="edgeStyle=orthogonalEdgeStyle;rounded=0;hachureGap=4;orthogonalLoop=1;jettySize=auto;html=1;fontFamily=Times New Roman;fontSize=26;sketch=1;curveFitting=1;jiggle=2;" edge="1" parent="1" source="kji1EXSY_DbW-UMr9K9y-76" target="kji1EXSY_DbW-UMr9K9y-87">
          <mxGeometry relative="1" as="geometry" />
        </mxCell>
        <mxCell id="kji1EXSY_DbW-UMr9K9y-76" value="" style="shape=table;startSize=0;container=1;collapsible=0;childLayout=tableLayout;fontSize=26;hachureGap=4;fontFamily=Times New Roman;columnLines=1;rowLines=1;absoluteArcSize=0;sketch=1;curveFitting=1;jiggle=2;" vertex="1" parent="1">
          <mxGeometry x="580" y="209.5" width="170" height="244" as="geometry" />
        </mxCell>
        <mxCell id="kji1EXSY_DbW-UMr9K9y-77" value="" style="shape=tableRow;horizontal=0;startSize=0;swimlaneHead=0;swimlaneBody=0;strokeColor=inherit;top=0;left=0;bottom=0;right=0;collapsible=0;dropTarget=0;fillColor=none;points=[[0,0.5],[1,0.5]];portConstraint=eastwest;fontSize=26;hachureGap=4;fontFamily=Times New Roman;sketch=1;curveFitting=1;jiggle=2;" vertex="1" parent="kji1EXSY_DbW-UMr9K9y-76">
          <mxGeometry width="170" height="61" as="geometry" />
        </mxCell>
        <mxCell id="kji1EXSY_DbW-UMr9K9y-78" value="Block0: A" style="shape=partialRectangle;html=1;whiteSpace=wrap;connectable=0;strokeColor=inherit;overflow=hidden;fillColor=none;top=0;left=0;bottom=0;right=0;pointerEvents=1;fontSize=26;hachureGap=4;fontFamily=Times New Roman;sketch=1;curveFitting=1;jiggle=2;" vertex="1" parent="kji1EXSY_DbW-UMr9K9y-77">
          <mxGeometry width="170" height="61" as="geometry">
            <mxRectangle width="170" height="61" as="alternateBounds" />
          </mxGeometry>
        </mxCell>
        <mxCell id="kji1EXSY_DbW-UMr9K9y-79" value="" style="shape=tableRow;horizontal=0;startSize=0;swimlaneHead=0;swimlaneBody=0;strokeColor=inherit;top=0;left=0;bottom=0;right=0;collapsible=0;dropTarget=0;fillColor=none;points=[[0,0.5],[1,0.5]];portConstraint=eastwest;fontSize=26;hachureGap=4;fontFamily=Times New Roman;sketch=1;curveFitting=1;jiggle=2;" vertex="1" parent="kji1EXSY_DbW-UMr9K9y-76">
          <mxGeometry y="61" width="170" height="61" as="geometry" />
        </mxCell>
        <mxCell id="kji1EXSY_DbW-UMr9K9y-80" value="Block1: D" style="shape=partialRectangle;html=1;whiteSpace=wrap;connectable=0;strokeColor=inherit;overflow=hidden;fillColor=none;top=0;left=0;bottom=0;right=0;pointerEvents=1;fontSize=26;hachureGap=4;fontFamily=Times New Roman;sketch=1;curveFitting=1;jiggle=2;" vertex="1" parent="kji1EXSY_DbW-UMr9K9y-79">
          <mxGeometry width="170" height="61" as="geometry">
            <mxRectangle width="170" height="61" as="alternateBounds" />
          </mxGeometry>
        </mxCell>
        <mxCell id="kji1EXSY_DbW-UMr9K9y-84" value="" style="shape=tableRow;horizontal=0;startSize=0;swimlaneHead=0;swimlaneBody=0;strokeColor=inherit;top=0;left=0;bottom=0;right=0;collapsible=0;dropTarget=0;fillColor=none;points=[[0,0.5],[1,0.5]];portConstraint=eastwest;fontSize=26;hachureGap=4;fontFamily=Times New Roman;sketch=1;curveFitting=1;jiggle=2;" vertex="1" parent="kji1EXSY_DbW-UMr9K9y-76">
          <mxGeometry y="122" width="170" height="61" as="geometry" />
        </mxCell>
        <mxCell id="kji1EXSY_DbW-UMr9K9y-85" value="Block2: C" style="shape=partialRectangle;html=1;whiteSpace=wrap;connectable=0;strokeColor=inherit;overflow=hidden;fillColor=none;top=0;left=0;bottom=0;right=0;pointerEvents=1;fontSize=26;hachureGap=4;fontFamily=Times New Roman;sketch=1;curveFitting=1;jiggle=2;" vertex="1" parent="kji1EXSY_DbW-UMr9K9y-84">
          <mxGeometry width="170" height="61" as="geometry">
            <mxRectangle width="170" height="61" as="alternateBounds" />
          </mxGeometry>
        </mxCell>
        <mxCell id="kji1EXSY_DbW-UMr9K9y-81" value="" style="shape=tableRow;horizontal=0;startSize=0;swimlaneHead=0;swimlaneBody=0;strokeColor=inherit;top=0;left=0;bottom=0;right=0;collapsible=0;dropTarget=0;fillColor=none;points=[[0,0.5],[1,0.5]];portConstraint=eastwest;fontSize=26;hachureGap=4;fontFamily=Times New Roman;sketch=1;curveFitting=1;jiggle=2;" vertex="1" parent="kji1EXSY_DbW-UMr9K9y-76">
          <mxGeometry y="183" width="170" height="61" as="geometry" />
        </mxCell>
        <mxCell id="kji1EXSY_DbW-UMr9K9y-82" value="Block3: E" style="shape=partialRectangle;html=1;whiteSpace=wrap;connectable=0;strokeColor=#36393d;overflow=hidden;fillColor=#ffff88;top=0;left=0;bottom=0;right=0;pointerEvents=1;fontSize=26;hachureGap=4;fontFamily=Times New Roman;sketch=1;curveFitting=1;jiggle=2;" vertex="1" parent="kji1EXSY_DbW-UMr9K9y-81">
          <mxGeometry width="170" height="61" as="geometry">
            <mxRectangle width="170" height="61" as="alternateBounds" />
          </mxGeometry>
        </mxCell>
        <mxCell id="kji1EXSY_DbW-UMr9K9y-87" value="" style="shape=table;startSize=0;container=1;collapsible=0;childLayout=tableLayout;fontSize=26;hachureGap=4;fontFamily=Times New Roman;columnLines=1;rowLines=1;absoluteArcSize=0;sketch=1;curveFitting=1;jiggle=2;" vertex="1" parent="1">
          <mxGeometry x="830" y="209.5" width="170" height="244" as="geometry" />
        </mxCell>
        <mxCell id="kji1EXSY_DbW-UMr9K9y-88" value="" style="shape=tableRow;horizontal=0;startSize=0;swimlaneHead=0;swimlaneBody=0;strokeColor=inherit;top=0;left=0;bottom=0;right=0;collapsible=0;dropTarget=0;fillColor=none;points=[[0,0.5],[1,0.5]];portConstraint=eastwest;fontSize=26;hachureGap=4;fontFamily=Times New Roman;sketch=1;curveFitting=1;jiggle=2;" vertex="1" parent="kji1EXSY_DbW-UMr9K9y-87">
          <mxGeometry width="170" height="61" as="geometry" />
        </mxCell>
        <mxCell id="kji1EXSY_DbW-UMr9K9y-89" value="Block0: A" style="shape=partialRectangle;html=1;whiteSpace=wrap;connectable=0;strokeColor=inherit;overflow=hidden;fillColor=none;top=0;left=0;bottom=0;right=0;pointerEvents=1;fontSize=26;hachureGap=4;fontFamily=Times New Roman;sketch=1;curveFitting=1;jiggle=2;" vertex="1" parent="kji1EXSY_DbW-UMr9K9y-88">
          <mxGeometry width="170" height="61" as="geometry">
            <mxRectangle width="170" height="61" as="alternateBounds" />
          </mxGeometry>
        </mxCell>
        <mxCell id="kji1EXSY_DbW-UMr9K9y-90" value="" style="shape=tableRow;horizontal=0;startSize=0;swimlaneHead=0;swimlaneBody=0;strokeColor=#006EAF;top=0;left=0;bottom=0;right=0;collapsible=0;dropTarget=0;fillColor=#1ba1e2;points=[[0,0.5],[1,0.5]];portConstraint=eastwest;fontSize=26;hachureGap=4;fontFamily=Times New Roman;fontColor=#ffffff;sketch=1;curveFitting=1;jiggle=2;" vertex="1" parent="kji1EXSY_DbW-UMr9K9y-87">
          <mxGeometry y="61" width="170" height="61" as="geometry" />
        </mxCell>
        <mxCell id="kji1EXSY_DbW-UMr9K9y-91" value="Block1: G" style="shape=partialRectangle;html=1;whiteSpace=wrap;connectable=0;strokeColor=inherit;overflow=hidden;fillColor=none;top=0;left=0;bottom=0;right=0;pointerEvents=1;fontSize=26;hachureGap=4;fontFamily=Times New Roman;sketch=1;curveFitting=1;jiggle=2;" vertex="1" parent="kji1EXSY_DbW-UMr9K9y-90">
          <mxGeometry width="170" height="61" as="geometry">
            <mxRectangle width="170" height="61" as="alternateBounds" />
          </mxGeometry>
        </mxCell>
        <mxCell id="kji1EXSY_DbW-UMr9K9y-92" value="" style="shape=tableRow;horizontal=0;startSize=0;swimlaneHead=0;swimlaneBody=0;strokeColor=inherit;top=0;left=0;bottom=0;right=0;collapsible=0;dropTarget=0;fillColor=none;points=[[0,0.5],[1,0.5]];portConstraint=eastwest;fontSize=26;hachureGap=4;fontFamily=Times New Roman;sketch=1;curveFitting=1;jiggle=2;" vertex="1" parent="kji1EXSY_DbW-UMr9K9y-87">
          <mxGeometry y="122" width="170" height="61" as="geometry" />
        </mxCell>
        <mxCell id="kji1EXSY_DbW-UMr9K9y-93" value="Block2: C" style="shape=partialRectangle;html=1;whiteSpace=wrap;connectable=0;strokeColor=inherit;overflow=hidden;fillColor=none;top=0;left=0;bottom=0;right=0;pointerEvents=1;fontSize=26;hachureGap=4;fontFamily=Times New Roman;sketch=1;curveFitting=1;jiggle=2;" vertex="1" parent="kji1EXSY_DbW-UMr9K9y-92">
          <mxGeometry width="170" height="61" as="geometry">
            <mxRectangle width="170" height="61" as="alternateBounds" />
          </mxGeometry>
        </mxCell>
        <mxCell id="kji1EXSY_DbW-UMr9K9y-94" value="" style="shape=tableRow;horizontal=0;startSize=0;swimlaneHead=0;swimlaneBody=0;strokeColor=#006EAF;top=0;left=0;bottom=0;right=0;collapsible=0;dropTarget=0;fillColor=#1ba1e2;points=[[0,0.5],[1,0.5]];portConstraint=eastwest;fontSize=26;hachureGap=4;fontFamily=Times New Roman;fontColor=#ffffff;sketch=1;curveFitting=1;jiggle=2;" vertex="1" parent="kji1EXSY_DbW-UMr9K9y-87">
          <mxGeometry y="183" width="170" height="61" as="geometry" />
        </mxCell>
        <mxCell id="kji1EXSY_DbW-UMr9K9y-95" value="Block3: F" style="shape=partialRectangle;html=1;whiteSpace=wrap;connectable=0;strokeColor=inherit;overflow=hidden;fillColor=none;top=0;left=0;bottom=0;right=0;pointerEvents=1;fontSize=26;hachureGap=4;fontFamily=Times New Roman;sketch=1;curveFitting=1;jiggle=2;" vertex="1" parent="kji1EXSY_DbW-UMr9K9y-94">
          <mxGeometry width="170" height="61" as="geometry">
            <mxRectangle width="170" height="61" as="alternateBounds" />
          </mxGeometry>
        </mxCell>
        <mxCell id="kji1EXSY_DbW-UMr9K9y-100" value="BLock1: D" style="whiteSpace=wrap;html=1;hachureGap=4;fontFamily=Times New Roman;fontSize=26;fillColor=#f0a30a;strokeColor=#BD7000;fontColor=#000000;sketch=1;curveFitting=1;jiggle=2;" vertex="1" parent="1">
          <mxGeometry x="845" y="490" width="140" height="70" as="geometry" />
        </mxCell>
        <mxCell id="kji1EXSY_DbW-UMr9K9y-109" value="" style="html=1;shadow=0;dashed=0;align=center;verticalAlign=middle;shape=mxgraph.arrows2.jumpInArrow;dy=15;dx=38;arrowHead=55;hachureGap=4;fontFamily=Times New Roman;movable=1;resizable=1;rotatable=1;deletable=1;editable=1;locked=0;connectable=1;rotation=15;fontSize=26;fillColor=#fa6800;fontColor=#000000;strokeColor=#C73500;sketch=1;curveFitting=1;jiggle=2;" vertex="1" parent="1">
          <mxGeometry x="68.18" y="100.65" width="717.78" height="584.05" as="geometry" />
        </mxCell>
        <mxCell id="kji1EXSY_DbW-UMr9K9y-112" value="BLock3:E" style="whiteSpace=wrap;html=1;hachureGap=4;fontFamily=Times New Roman;fontSize=26;fillColor=#f0a30a;strokeColor=#BD7000;fontColor=#000000;sketch=1;curveFitting=1;jiggle=2;" vertex="1" parent="1">
          <mxGeometry x="845" y="600" width="140" height="70" as="geometry" />
        </mxCell>
      </root>
    </mxGraphModel>
  </diagram>
</mxfile>
